# AST/ASF file generated using VICON BodyLanguage
# -----------------------------------------------
:version 1.10
:name VICON
:units
  mass 1.0
  length 0.45
  angle deg
:documentation
   .ast/.asf automatically generated from VICON data using
   VICON BodyBuilder and BodyLanguage model FoxedUp or BRILLIANT.MOD
:root
   order TX TY TZ RX RY RZ
   axis XYZ
   position 0 0 0  
   orientation 0 -0 0 
:bonedata
  begin
     id 1 
     name lhipjoint
     direction 0.500677 -0.737119 0.453848 
     length 2.34727 
     axis 0 -0 0  XYZ
  end
  begin
     id 2 
     name lfemur
     direction 0.34202 -0.939693 0  
     length 7.53653  
     axis 0 -0 20  XYZ
    dof rx ry rz
    limits (-160.0 20.0)
           (-70.0 70.0)
           (-60.0 70.0)
  end
  begin
     id 3 
     name ltibia
     direction 0.34202 -0.939693 0   
     length 6.85572   
     axis 0 -0 20   XYZ
    dof rx
    limits (-10.0 170.0)
  end
  begin
     id 4 
     name lfoot
     direction 0.155313 -0.426718 0.890949   
     length 2.18324   
     axis -90 -1.13533e-015 20   XYZ
    dof rx rz
    limits (-45.0 90.0)
           (-70.0 20.0)
  end
  begin
     id 5 
     name ltoes
     direction 1.53474e-011 -4.21647e-011 1   
     length 1.06748   
     axis -90 -1.13533e-015 20   XYZ
    dof rx
    limits (-90.0 20.0)
  end
  begin
     id 6 
     name rhipjoint
     direction -0.632471 -0.659587 0.406111   
     length 2.62319  
     axis 0 -0 0  XYZ 
  end
  begin
     id 7 
     name rfemur
     direction -0.34202 -0.939693 0   
     length 7.21735   
     axis 0 -0 -20   XYZ
    dof rx ry rz
    limits (-160.0 20.0)
           (-70.0 70.0)
           (-70.0 60.0)
  end
  begin
     id 8 
     name rtibia
     direction -0.34202 -0.939693 0   
     length 7.02558   
     axis 0 -0 -20   XYZ
    dof rx
    limits (-10.0 170.0)
 end
 begin
     id 9 
     name rfoot
     direction -0.16057 -0.441164 0.882945   
     length 2.10014  
     axis -90 1.13533e-015 -20   XYZ
    dof rx rz
    limits (-45.0 90.0)
           (-20.0 70.0)
  end
  begin
     id 10 
     name rtoes
     direction -1.53553e-011 -4.2192e-011 1   
     length 1.02554   
     axis -90 1.13533e-015 -20   XYZ
    dof rx
    limits (-90.0 20.0)
  end
  begin
     id 11 
     name lowerback
     direction 0.0401429 0.998861 -0.0258085   
     length 1.80848   
     axis 0 -0 0   XYZ
    dof rx ry rz
    limits (-20.0 45.0)
           (-30.0 30.0)
           (-30.0 30.0)
  end
  begin
     id 12 
     name upperback
     direction -0.0130978 0.999914 -0.000352645   
     length 1.8116   
     axis 0 -0 0   XYZ
    dof rx ry rz
    limits (-20.0 45.0)
           (-30.0 30.0)
           (-30.0 30.0)
  end
  begin
     id 13 
     name thorax
     direction -0.0300198 0.999453 0.0138573   
     length 1.81778   
     axis 0 -0 0   XYZ
    dof rx ry rz
    limits (-20.0 45.0)
           (-30.0 30.0)
           (-30.0 30.0)
  end
  begin
     id 14 
     name lowerneck
     direction -0.0401726 0.999191 -0.00173647   
     length 2.10594   
     axis 0 -0 0   XYZ
    dof rx ry rz
    limits (-20.0 45.0)
           (-30.0 30.0)
           (-30.0 30.0)
  end
  begin
     id 15 
     name upperneck
     direction 0.0119835 0.998501 0.0534085   
     length 2.07325   
     axis 0 -0 0   XYZ
    dof rx ry rz
    limits (-20.0 45.0)
           (-30.0 30.0)
           (-30.0 30.0)
  end
  begin
     id 16
     name head
     direction 0.00628309 0.999826 0.0175921  
     length 2.15096  
     axis 0 -0 0   XYZ
    dof rx ry rz
    limits (-20.0 45.0)
           (-30.0 30.0)
           (-30.0 30.0)
  end
  begin
     id 17 
     name lclavicle
     direction 0.895501 0.429681 -0.115981  
     length 4.18092  
     axis 0 -0 0   XYZ
    dof ry rz
    limits (-20.0 10.0)
           (0.0 20.0)
  end
  begin
     id 18 
     name lhumerus
     direction 1 -4.48961e-011 -3.38433e-028   
     length 5.77237   
     axis 180 -30 -90   XYZ
    dof rx ry rz
    limits (-60.0 90.0)
           (-90.0 90.0)
           (-90.0 90.0)
  end
  begin
     id 19
     name lradius
     direction 1 -4.4901e-011 1.11983e-026   
     length 2.91878   
     axis 180 -30 -90   XYZ
    dof rx
    limits (-10.0 170.0)
  end
  begin
     id 20
     name lwrist
     direction 1 -4.48934e-011 1.88176e-026   
     length 1.45939   
     axis -1.23311e-014 90 90   XYZ
    dof ry
    limits (-180.0 0.0)
 end
  begin
     id 21 
     name lhand
     direction 1 -4.4895e-011 3.76352e-026   
     length 1.06566   
     axis -2.40147e-014 90 90   XYZ
    dof rx rz
    limits (-90.0 90.0)
           (-45.0 45.0)
  end
  begin
     id 22 
     name lfingers
     direction 1 -4.49005e-011 7.52705e-026   
     length 0.859162   
     axis -4.80295e-014 90 90   XYZ
    dof rx
    limits (0.0 90.0)
  end
  begin
     id 23
     name lthumb
     direction 0.707107 -6.34885e-011 0.707107   
     length 1.23359   
     axis -90 45 -9.86935e-015   XYZ
    dof rx rz
    limits (-45.0 45.0)
           (-45.0 45.0)
  end
  begin
     id 24 
     name rclavicle
     direction -0.91006 0.40451 -0.0903492   
     length 4.23293  
     axis 0 -0 0   XYZ 
    dof ry rz
    limits (-10.0 20.0)
           (-20.0 0.0)
  end
  begin
     id 25 
     name rhumerus
     direction -1 -4.4897e-011 1.7415e-027  
     length 5.49854   
     axis 180 30 90   XYZ
    dof rx ry rz
    limits (-90.0 60.0)
           (-90.0 90.0)
           (-90.0 90.0)
  end
  begin
     id 26 
     name rradius
     direction -1 -4.48963e-011 1.21259e-026   
     length 3.1186   
     axis 180 30 90   XYZ
    dof rx
    limits (-10.0 170.0)
  end
  begin
     id 27 
     name rwrist
     direction -1 -4.48967e-011 1.88176e-026   
     length 1.5593   
     axis -1.23311e-014 -90 -90   XYZ
    dof ry
    limits (-180.0 0.0)
  end
  begin
     id 28
     name rhand
     direction -1 -4.4895e-011 3.76352e-026   
     length 0.71207   
     axis -2.40147e-014 -90 -90   XYZ
    dof rx rz
    limits (-90.0 90.0)
           (-45.0 45.0)
  end
  begin
     id 29
     name rfingers
     direction -1 -4.49005e-011 7.52705e-026   
     length 0.574089   
     axis -4.80295e-014 -90 -90   XYZ
    dof rx
    limits (0.0 90.0)
  end
  begin
     id 30
     name rthumb
     direction -0.707107 -6.34982e-011 0.707107   
     length 0.824281   
     axis -90 -45 9.86935e-015   XYZ
    dof rx rz
    limits (-45.0 45.0)
           (-45.0 45.0)
  end
:hierarchy
  begin
    root lhipjoint rhipjoint lowerback
    lhipjoint lfemur
    lfemur ltibia
    ltibia lfoot
    lfoot ltoes
    rhipjoint rfemur
    rfemur rtibia
    rtibia rfoot
    rfoot rtoes
    lowerback upperback
    upperback thorax
    thorax lowerneck lclavicle rclavicle
    lowerneck upperneck
    upperneck head
    lclavicle lhumerus
    lhumerus lradius
    lradius lwrist
    lwrist lhand lthumb
    lhand lfingers
    rclavicle rhumerus
    rhumerus rradius
    rradius rwrist
    rwrist rhand rthumb
    rhand rfingers
  end

#!OML:ASF C:\ViconDB\ViconDB\414\Spring2016\042216\male.ASF
:FULLY-SPECIFIED
:DEGREES
417
root 2.47497 17.0782 9.4695 273.858 80.9148 632.263
lowerback -0.56641 1.31749 11.5128
upperback -1.46583 1.77612 -1.49173
thorax -0.829216 0.776379 -8.05241
lowerneck -2.66017 7.86623 -3.88312
upperneck -7.17922 10.6758 0.355605
head -2.04541 5.45508 0.625549
rclavicle 2.16178e-015 1.74931e-014
rhumerus -23.9043 8.59367 -101.541
rradius 21.5933
rwrist 37.2016
rhand 14.1554 -19.2016
rfingers 7.12502
rthumb 39.056 -44.7055
lclavicle 2.16178e-015 1.74931e-014
lhumerus -52.062 30.6041 59.6175
lradius 27.6448
lwrist -21.7602
lhand -9.95288 16.1304
lfingers 7.12502
lthumb 16.029 45.4873
rfemur 24.7648 3.49281 31.9292
rtibia -9.54166e-015
rfoot 7.72229 2.33201
rtoes -25.4262
lfemur -30.5906 -6.00669 -10.3007
ltibia 36.2481
lfoot -13.2337 12.3788
ltoes -5.74398
418
root 2.62077 17.0599 9.45943 273.22 80.9241 631.648
lowerback -0.432216 1.31382 11.2847
upperback -1.41969 1.78149 -1.67501
thorax -0.854711 0.780193 -8.12158
lowerneck -2.70217 7.87129 -4.10739
upperneck -7.50786 10.6883 0.239726
head -2.15287 5.47549 0.618477
rclavicle -1.46107e-014 -9.54166e-015
rhumerus -23.6802 8.81119 -101.757
rradius 21.5103
rwrist 38.3301
rhand 13.7146 -19.3897
rfingers 7.12502
rthumb 38.6404 -45.0118
lclavicle -1.46107e-014 -9.54166e-015
lhumerus -52.72 31.8215 58.2497
lradius 27.0861
lwrist -23.6572
lhand -9.88738 16.0047
lfingers 7.12502
lthumb 16.0921 45.3566
rfemur 24.9989 3.09999 31.7263
rtibia 4.45278e-014
rfoot 9.57191 2.17511
rtoes -26.7925
lfemur -30.6339 -6.39807 -10.3674
ltibia 37.3205
lfoot -14.1769 12.835
ltoes -12.8692
419
root 2.76127 17.0383 9.45068 271.405 80.5894 629.793
lowerback -0.402122 1.29456 11.4089
upperback -1.37154 1.7562 -1.74327
thorax -0.821516 0.770013 -8.26676
lowerneck -2.77863 7.81774 -4.20576
upperneck -7.71598 10.6121 -0.0135627
head -2.19597 5.45003 0.555367
rclavicle -1.38155e-014 -1.90833e-014
rhumerus -23.653 8.96968 -101.971
rradius 21.6876
rwrist 39.2298
rhand 13.6028 -19.6719
rfingers 7.12502
rthumb 38.5349 -45.3236
lclavicle -1.38155e-014 -1.90833e-014
lhumerus -53.3525 33.3887 56.6539
lradius 26.4226
lwrist -25.9442
lhand -9.89123 16.1093
lfingers 7.12502
lthumb 16.0884 45.4614
rfemur 25.1508 2.5263 31.8962
rtibia 1.27222e-014
rfoot 11.6012 1.7386
rtoes -27.3049
lfemur -30.7207 -7.00117 -9.98884
ltibia 38.3347
lfoot -14.0621 13.5046
ltoes -10.9381
420
root 2.90246 17.0248 9.44803 271.407 80.0797 629.684
lowerback -0.511712 1.39991 11.6278
upperback -1.3037 1.87972 -1.75103
thorax -0.653973 0.843449 -8.395
lowerneck -2.86769 7.74875 -4.20925
upperneck -7.92422 10.5071 -0.403964
head -2.22194 5.41131 0.436028
rclavicle -1.87479e-014 1.59028e-015
rhumerus -23.5726 9.3757 -102.127
rradius 22.0179
rwrist 39.9775
rhand 14.0201 -19.8834
rfingers 7.12502
rthumb 38.9285 -45.4239
lclavicle -1.87479e-014 1.59028e-015
lhumerus -53.8528 34.6326 55.5201
lradius 26.1919
lwrist -27.5743
lhand -9.81244 16.4391
lfingers 7.12502
lthumb 16.1643 45.7851
rfemur 25.173 2.22554 32.2923
rtibia 4.77083e-014
rfoot 13.7558 1.18494
rtoes -28.1361
lfemur -30.7553 -7.12322 -9.46933
ltibia 39.2166
lfoot -13.6954 13.9609
ltoes -6.8493
421
root 3.03941 17.0223 9.44612 272.744 79.5351 630.79
lowerback -0.645404 1.57274 11.9264
upperback -1.33648 2.09551 -1.79726
thorax -0.552832 0.954247 -8.60938
lowerneck -2.84929 7.72665 -4.0996
upperneck -8.15393 10.4594 -0.746704
head -2.27182 5.39703 0.307141
rclavicle -2.53078e-014 1.43125e-014
rhumerus -23.6588 10.4327 -102.711
rradius 22.3697
rwrist 39.5141
rhand 13.9256 -20.0068
rfingers 7.12502
rthumb 38.8393 -45.5727
lclavicle -2.53078e-014 1.43125e-014
lhumerus -54.1221 35.4639 54.7232
lradius 26.0902
lwrist -28.7657
lhand -9.71278 17.0363
lfingers 7.12502
lthumb 16.2602 46.3745
rfemur 25.0274 2.1582 32.7562
rtibia 6.36111e-014
rfoot 16.2248 0.599227
rtoes -28.1897
lfemur -30.7607 -6.85889 -8.93017
ltibia 39.8524
lfoot -14.695 13.9491
ltoes -8.98804
422
root 3.17756 17.0386 9.43178 273.933 79.1523 631.714
lowerback -0.793186 1.72913 12.2414
upperback -1.41182 2.2892 -1.88516
thorax -0.489629 1.04954 -8.87829
lowerneck -2.79532 7.74549 -4.08784
upperneck -8.312 10.4689 -0.98889
head -2.31805 5.41009 0.22382
rclavicle 2.16054e-014 9.54166e-015
rhumerus -23.7051 11.2769 -103.164
rradius 22.6872
rwrist 39.1984
rhand 13.6436 -20.2018
rfingers 7.12502
rthumb 38.5734 -45.8427
lclavicle 2.16054e-014 9.54166e-015
lhumerus -54.2929 36.0251 54.333
lradius 26.0801
lwrist -29.3069
lhand -9.70512 17.2187
lfingers 7.12502
lthumb 16.2676 46.5563
rfemur 20.8302 2.08052 32.9739
rtibia 8.13646
rfoot 14.7576 1.64349
rtoes -28.4601
lfemur -30.5958 -6.72001 -8.57176
ltibia 40.1655
lfoot -15.7087 14.0358
ltoes -11.3842
423
root 3.31887 17.0776 9.42195 275.684 79.0054 633.119
lowerback -0.985947 1.89086 12.2394
upperback -1.5682 2.48881 -2.04218
thorax -0.491382 1.14203 -9.03904
lowerneck -2.63481 7.78557 -3.98564
upperneck -8.49212 10.4991 -1.2314
head -2.38541 5.43077 0.120297
rclavicle -2.10588e-014 -4.77083e-015
rhumerus -23.7991 12.5138 -103.799
rradius 23.0728
rwrist 38.3377
rhand 13.9973 -20.1249
rfingers 7.12502
rthumb 38.907 -45.6715
lclavicle -2.10588e-014 -4.77083e-015
lhumerus -54.4384 36.3408 54.1491
lradius 26.2479
lwrist -29.3151
lhand -9.6372 17.2325
lfingers 7.12502
lthumb 16.333 46.5647
rfemur 18.457 2.09784 32.9947
rtibia 12.3652
rfoot 15.109 1.93696
rtoes -28.9921
lfemur -30.3095 -6.41746 -8.45913
ltibia 40.1312
lfoot -15.8723 14.2433
ltoes -10.1183
424
root 3.4602 17.1228 9.40386 278.285 78.8445 635.491
lowerback -1.10861 1.97723 12.339
upperback -1.68155 2.59476 -2.11627
thorax -0.509464 1.18785 -9.17207
lowerneck -2.39117 7.95209 -4.2266
upperneck -8.77499 10.7017 -1.36602
head -2.53329 5.54683 0.0925844
rclavicle -5.67779e-015 1.74931e-014
rhumerus -23.9347 14.936 -104.598
rradius 23.5324
rwrist 36.3454
rhand 13.9913 -20.1597
rfingers 7.12502
rthumb 38.9013 -45.708
lclavicle -5.67779e-015 1.74931e-014
lhumerus -54.2278 35.8765 55.168
lradius 26.8331
lwrist -27.4417
lhand -9.57129 17.4098
lfingers 7.12502
lthumb 16.3965 46.7368
rfemur 16.6693 1.9941 32.8008
rtibia 15.5708
rfoot 16.1073 1.97624
rtoes -27.8342
lfemur -29.7042 -6.23452 -8.36001
ltibia 39.7799
lfoot -16.1177 14.6992
ltoes -10.4346
425
root 3.60617 17.175 9.40061 280.6 78.7392 637.577
lowerback -1.31934 2.04203 12.1141
upperback -1.82743 2.6635 -2.27713
thorax -0.529369 1.21606 -9.21057
lowerneck -2.20364 8.13854 -3.88637
upperneck -8.82496 10.9167 -1.67002
head -2.54588 5.65012 -0.0688651
rclavicle -6.65929e-015 2.70347e-014
rhumerus -24.0855 16.7583 -105.491
rradius 24.1141
rwrist 34.9263
rhand 14.2502 -19.9215
rfingers 7.12502
rthumb 39.1454 -45.3997
lclavicle -6.65929e-015 2.70347e-014
lhumerus -53.9054 35.1116 56.1424
lradius 27.4975
lwrist -25.1873
lhand -9.68988 17.4385
lfingers 7.12502
lthumb 16.2823 46.7749
rfemur 15.1385 1.83125 32.5906
rtibia 18.3058
rfoot 17.1886 1.69742
rtoes -26.7034
lfemur -28.9575 -6.0837 -8.29831
ltibia 39.205
lfoot -16.4545 15.0174
ltoes -11.1082
426
root 3.7477 17.2338 9.39269 283.538 78.6202 640.349
lowerback -1.35156 2.09836 11.9687
upperback -2.00269 2.7459 -2.37912
thorax -0.677597 1.24098 -9.23806
lowerneck -1.98462 8.36016 -3.84582
upperneck -8.89721 11.1892 -1.79796
head -2.60212 5.78702 -0.133513
rclavicle -2.22887e-014 -4.77083e-015
rhumerus -24.1722 18.5559 -106.287
rradius 24.5062
rwrist 33.2098
rhand 14.3959 -19.8125
rfingers 7.12502
rthumb 39.2827 -45.2509
lclavicle -2.22887e-014 -4.77083e-015
lhumerus -53.5571 34.2614 57.3659
lradius 28.2138
lwrist -22.7031
lhand -9.55981 17.4266
lfingers 7.12502
lthumb 16.4075 46.7526
rfemur 13.8042 1.77519 32.2885
rtibia 20.7209
rfoot 18.2494 1.14261
rtoes -25.8577
lfemur -28.0805 -5.93987 -8.27767
ltibia 38.5308
lfoot -16.6245 15.4784
ltoes -11.2496
427
root 3.88264 17.2927 9.39294 288.039 78.2211 644.6
lowerback -1.41067 2.28484 11.8794
upperback -2.19531 2.99986 -2.40218
thorax -0.788414 1.35385 -9.20551
lowerneck -1.85983 8.55903 -3.90718
upperneck -8.94229 11.4434 -1.82299
head -2.64547 5.91514 -0.145439
rclavicle -5.63555e-014 4.45278e-014
rhumerus -24.3292 20.5521 -107.012
rradius 25.2071
rwrist 31.2672
rhand 14.3987 -20.0259
rfingers 7.12502
rthumb 39.2854 -45.4635
lclavicle -5.63555e-014 4.45278e-014
lhumerus -53.2068 33.4891 58.6007
lradius 28.9463
lwrist -20.5791
lhand -9.33637 17.2117
lfingers 7.12502
lthumb 16.6226 46.5199
rfemur 12.441 2.07737 32.2025
rtibia 23.0098
rfoot 19.3911 0.614244
rtoes -23.8202
lfemur -27.2184 -5.65093 -8.00871
ltibia 37.8046
lfoot -16.7431 16.1025
ltoes -11.5683
428
root 4.00902 17.3412 9.39058 290.817 77.763 647.264
lowerback -1.3984 2.34978 11.9587
upperback -2.32528 3.09569 -2.45074
thorax -0.903876 1.38749 -9.30526
lowerneck -1.6654 8.77767 -3.68296
upperneck -8.99078 11.7121 -1.98214
head -2.67419 6.04498 -0.246605
rclavicle -3.33461e-014 -1.27222e-014
rhumerus -24.2761 21.4956 -107.587
rradius 25.6906
rwrist 30.5038
rhand 14.5095 -19.8523
rfingers 7.12502
rthumb 39.3898 -45.2595
lclavicle -3.33461e-014 -1.27222e-014
lhumerus -52.6801 32.2722 60.0869
lradius 29.885
lwrist -18.1969
lhand -8.84152 17.0894
lfingers 7.12502
lthumb 17.099 46.3569
rfemur 11.1566 2.02222 32.212
rtibia 25.2961
rfoot 20.1662 0.208402
rtoes -21.9002
lfemur -26.3112 -5.52655 -7.68664
ltibia 37.0666
lfoot -16.8414 16.619
ltoes -11.6991
429
root 4.13217 17.3875 9.38725 291.513 77.4109 647.909
lowerback -1.41058 2.29438 11.999
upperback -2.36858 3.02335 -2.39677
thorax -0.962216 1.34514 -9.27296
lowerneck -1.53045 8.97683 -3.58911
upperneck -9.04614 11.9532 -2.22528
head -2.69649 6.16842 -0.350168
rclavicle 4.17448e-015 9.54166e-015
rhumerus -24.3974 23.122 -108.047
rradius 26.5926
rwrist 29.1311
rhand 14.4413 -20.0007
rfingers 7.12502
rthumb 39.3255 -45.4267
lclavicle 4.17448e-015 9.54166e-015
lhumerus -52.1981 31.5282 61.3577
lradius 30.5564
lwrist -16.907
lhand -8.60102 16.6365
lfingers 7.12502
lthumb 17.3305 45.8839
rfemur 10.0081 1.55918 32.2498
rtibia 27.4695
rfoot 20.6937 -0.290218
rtoes -19.2255
lfemur -25.4271 -5.65012 -7.37847
ltibia 36.3366
lfoot -16.9412 16.9723
ltoes -11.7739
430
root 4.25002 17.4319 9.3794 291.739 77.1023 648.064
lowerback -1.39778 2.22761 12.1826
upperback -2.43035 2.93923 -2.43102
thorax -1.04729 1.29175 -9.42181
lowerneck -1.57512 9.14199 -3.44153
upperneck -8.86899 12.1672 -2.31227
head -2.61424 6.26761 -0.394632
rclavicle -3.31473e-014 4.77083e-015
rhumerus -24.3265 23.7579 -108.362
rradius 27.2606
rwrist 28.3605
rhand 14.0747 -19.8703
rfingers 7.12502
rthumb 38.98 -45.396
lclavicle -3.31473e-014 4.77083e-015
lhumerus -51.5055 30.3367 62.8834
lradius 31.2424
lwrist -15.3586
lhand -8.6728 16.6329
lfingers 7.12502
lthumb 17.2614 45.8863
rfemur 8.84555 0.867303 32.2126
rtibia 29.5348
rfoot 20.5064 -0.774516
rtoes -17.3743
lfemur -24.6307 -5.82237 -7.09947
ltibia 35.5999
lfoot -16.9488 17.2365
ltoes -11.668
